{"scene":0,"asset":{"generator":"ImageToStl.com","version":"2.0"},"scenes":[{"name":"Scene","nodes":[0]}],"nodes":[{"name":"Node0","children":[1]},{"name":"Node1","mesh":0}],"materials":[{"name":"05 - Default","pbrMetallicRoughness":{"baseColorFactor":[0.588235,0.588235,0.588235,1.0],"metallicFactor":0.0,"roughnessFactor":0.98},"emissiveFactor":[0.0,0.0,0.0],"doubleSided":true}],"meshes":[{"name":"Mesh0","primitives":[{"indices":3,"material":0,"attributes":{"POSITION":0,"NORMAL":1,"TEXCOORD_0":2}}]}],"accessors":[{"bufferView":0,"componentType":5126,"count":4190,"type":"VEC3","min":[-0.118855536,-0.43266392,-0.056576535],"max":[0.08606471,-3.1024218E-05,0.29153252]},{"bufferView":1,"componentType":5126,"count":4190,"type":"VEC3"},{"bufferView":2,"componentType":5126,"count":4190,"type":"VEC2"},{"bufferView":3,"componentType":5123,"count":55584,"type":"SCALAR"}],"bufferViews":[{"target":34962,"buffer":0,"byteLength":50280,"byteOffset":0},{"target":34962,"buffer":0,"byteLength":50280,"byteOffset":50280},{"target":34962,"buffer":0,"byteLength":33520,"byteOffset":100560},{"target":34963,"buffer":0,"byteLength":111168,"byteOffset":134080}],"buffers":[{"byteLength":245248,"uri":"data:application/octet-stream;base64,"}]}