{
  "asset": {
    "version": "2.0",
    "generator": "THREE.GLTFExporter"
  },
  "scenes": [
    {
      "name": "AuxScene",
      "nodes": [
        3
      ]
    }
  ],
  "scene": 0,
  "nodes": [
    {
      "name": "object_0",
      "mesh": 0
    },
    {
      "name": "object_1",
      "mesh": 1
    },
    {
      "name": "object_2",
      "mesh": 2
    },
    {
      "children": [
        0,
        1,
        2
      ]
    }
  ],
  "bufferViews": [
    {
      "buffer": 0,
      "byteOffset": 0,
      "byteLength": 46296,
      "target": 34962,
      "byteStride": 12
    },
    {
      "buffer": 0,
      "byteOffset": 46296,
      "byteLength": 46296,
      "target": 34962,
      "byteStride": 12
    },
    {
      "buffer": 0,
      "byteOffset": 92592,
      "byteLength": 30864,
      "target": 34962,
      "byteStride": 8
    },
    {
      "buffer": 0,
      "byteOffset": 123456,
      "byteLength": 40464,
      "target": 34962,
      "byteStride": 12
    },
    {
      "buffer": 0,
      "byteOffset": 163920,
      "byteLength": 40464,
      "target": 34962,
      "byteStride": 12
    },
    {
      "buffer": 0,
      "byteOffset": 204384,
      "byteLength": 26976,
      "target": 34962,
      "byteStride": 8
    },
    {
      "buffer": 0,
      "byteOffset": 231360,
      "byteLength": 9216,
      "target": 34962,
      "byteStride": 12
    },
    {
      "buffer": 0,
      "byteOffset": 240576,
      "byteLength": 9216,
      "target": 34962,
      "byteStride": 12
    },
    {
      "buffer": 0,
      "byteOffset": 249792,
      "byteLength": 6144,
      "target": 34962,
      "byteStride": 8
    }
  ],
  "buffers": [
    {
      "byteLength": 255936,
      "uri": "data:application/octet-stream;base64,"
    }
  ],
  "accessors": [
    {
      "bufferView": 0,
      "componentType": 5126,
      "count": 3858,
      "max": [
        3839.633056640625,
        108.50080871582031,
        275.5236511230469
      ],
      "min": [
        3623.286865234375,
        -168.63662719726562,
        -220.38157653808594
      ],
      "type": "VEC3"
    },
    {
      "bufferView": 1,
      "componentType": 5126,
      "count": 3858,
      "max": [
        1,
        0.9999992251396179,
        0.9999992251396179
      ],
      "min": [
        -1,
        -0.9999992251396179,
        -0.9999992251396179
      ],
      "type": "VEC3"
    },
    {
      "bufferView": 2,
      "componentType": 5126,
      "count": 3858,
      "max": [
        0.9989140033721924,
        0.9923080205917358
      ],
      "min": [
        0.0010130000300705433,
        0.00687299994751811
      ],
      "type": "VEC2"
    },
    {
      "bufferView": 3,
      "componentType": 5126,
      "count": 3372,
      "max": [
        3834.106689453125,
        -112.291015625,
        -4.721015453338623
      ],
      "min": [
        3628.81298828125,
        -299.6387939453125,
        -345.8822326660156
      ],
      "type": "VEC3"
    },
    {
      "bufferView": 4,
      "componentType": 5126,
      "count": 3372,
      "max": [
        0.9999975562095642,
        1,
        0.9999975562095642
      ],
      "min": [
        -0.9999975562095642,
        -1,
        -0.9999975562095642
      ],
      "type": "VEC3"
    },
    {
      "bufferView": 5,
      "componentType": 5126,
      "count": 3372,
      "max": [
        0.9988899827003479,
        0.9949089884757996
      ],
      "min": [
        0.0007999999797903001,
        0.00583800021559
      ],
      "type": "VEC2"
    },
    {
      "bufferView": 6,
      "componentType": 5126,
      "count": 768,
      "max": [
        3825.927001953125,
        94.70655822753906,
        217.74952697753906
      ],
      "min": [
        3636.51318359375,
        -94.70643615722656,
        216.95455932617188
      ],
      "type": "VEC3"
    },
    {
      "bufferView": 7,
      "componentType": 5126,
      "count": 768,
      "max": [
        0.9948797225952148,
        0.9952751398086548,
        0.9999992251396179
      ],
      "min": [
        -0.994877815246582,
        -0.9952751398086548,
        -0.9999992251396179
      ],
      "type": "VEC3"
    },
    {
      "bufferView": 8,
      "componentType": 5126,
      "count": 768,
      "max": [
        0.45323601365089417,
        0.8067790269851685
      ],
      "min": [
        0.45323601365089417,
        0.8067790269851685
      ],
      "type": "VEC2"
    }
  ],
  "materials": [
    {
      "pbrMetallicRoughness": {
        "metallicFactor": 0.5,
        "roughnessFactor": 0.5
      },
      "name": "object_0"
    },
    {
      "pbrMetallicRoughness": {
        "metallicFactor": 0.5,
        "roughnessFactor": 0.5
      },
      "name": "object_1"
    },
    {
      "pbrMetallicRoughness": {
        "metallicFactor": 0.5,
        "roughnessFactor": 0.5
      },
      "name": "object_2"
    }
  ],
  "meshes": [
    {
      "primitives": [
        {
          "mode": 4,
          "attributes": {
            "POSITION": 0,
            "NORMAL": 1,
            "TEXCOORD_0": 2
          },
          "material": 0
        }
      ]
    },
    {
      "primitives": [
        {
          "mode": 4,
          "attributes": {
            "POSITION": 3,
            "NORMAL": 4,
            "TEXCOORD_0": 5
          },
          "material": 1
        }
      ]
    },
    {
      "primitives": [
        {
          "mode": 4,
          "attributes": {
            "POSITION": 6,
            "NORMAL": 7,
            "TEXCOORD_0": 8
          },
          "material": 2
        }
      ]
    }
  ]
}